<svg xmlns="http://www.w3.org/2000/svg" xmlns:xlink="http://www.w3.org/1999/xlink" width="1920" zoomAndPan="magnify" viewBox="0 0 1440 809.999993" height="1080" preserveAspectRatio="xMidYMid meet" version="1.0"><path fill="#1c1c1c" d="M 783.21875 200.832031 C 781.449219 201.253906 777.828125 202.683594 775.214844 204.035156 C 771.929688 205.632812 766.957031 207.066406 759.796875 208.246094 C 725.085938 214.3125 710.003906 218.777344 707.308594 224 C 706.042969 226.359375 702.671875 227.707031 682.285156 233.945312 C 665.769531 239 652.710938 242.285156 635.019531 245.738281 C 626.84375 247.339844 617.070312 249.445312 613.28125 250.457031 C 603.589844 252.902344 592.046875 255.175781 583.792969 256.355469 C 576.628906 257.28125 573.089844 258.628906 570.902344 260.90625 C 560.285156 272.445312 557.757812 274.046875 545.371094 276.660156 C 535.765625 278.683594 530.039062 278.765625 527.933594 276.828125 C 526.835938 275.902344 525.066406 275.394531 522.792969 275.480469 C 515.125 275.816406 478.476562 282.21875 459.011719 286.6875 C 452.777344 288.117188 445.027344 289.804688 441.742188 290.5625 C 438.539062 291.234375 432.808594 292.753906 429.101562 293.847656 C 425.3125 294.941406 416.71875 297.386719 409.976562 299.238281 C 395.484375 303.117188 394.726562 303.535156 392.113281 307.582031 C 389.417969 311.792969 363.132812 340.777344 357.148438 346.167969 C 349.566406 352.910156 344.933594 355.773438 339.792969 356.617188 C 331.875 357.878906 329.683594 359.988281 326.3125 369.507812 C 324.039062 375.742188 323.703125 376.246094 315.613281 383.324219 C 311.0625 387.367188 305.082031 392.085938 302.46875 393.855469 C 296.992188 397.480469 295.054688 400.679688 294.296875 407.167969 C 293.371094 415.171875 293.03125 416.269531 288.652344 422.925781 C 271.128906 449.886719 235.402344 484.765625 212.066406 497.65625 L 206.503906 500.691406 L 180.132812 500.691406 L 180.132812 592.527344 L 198.921875 592.527344 C 220.238281 592.527344 225.882812 591.683594 235.570312 587.050781 C 242.734375 583.679688 252 575.085938 255.117188 568.933594 C 264.808594 549.976562 261.945312 528.578125 247.875 514.507812 C 240.207031 506.839844 226.558594 500.773438 216.785156 500.691406 L 213.414062 500.605469 L 215.6875 498.753906 C 217.035156 497.65625 221.585938 494.792969 225.96875 492.347656 C 237.257812 485.945312 245.933594 478.699219 263.039062 461.007812 C 290 433.203125 300.617188 418.207031 300.617188 408.011719 C 300.617188 403.039062 302.300781 400.429688 308.871094 395.203125 C 311.988281 392.59375 318.226562 386.949219 322.691406 382.652344 C 329.851562 375.574219 330.945312 374.226562 332.125 369.929688 C 333.644531 364.535156 336.507812 361.671875 340.382812 361.671875 C 347.714844 361.671875 358.246094 352.574219 387.398438 321.230469 C 394.054688 314.070312 400.289062 307.664062 401.128906 306.992188 C 404.332031 304.714844 443.339844 293.425781 460.699219 289.71875 C 472.746094 287.191406 487.320312 285.085938 504.003906 283.316406 C 521.949219 281.460938 522.203125 281.460938 522.203125 285.589844 C 522.203125 286.601562 523.382812 290.644531 524.8125 294.4375 C 526.246094 298.3125 528.691406 304.800781 530.289062 309.011719 C 533.746094 318.449219 533.914062 316.765625 530.710938 303.789062 C 529.363281 298.3125 528.101562 291.574219 527.933594 288.792969 L 527.679688 283.738281 L 533.996094 283.230469 C 540.738281 282.726562 553.039062 279.945312 558.011719 277.921875 C 561.296875 276.492188 570.144531 269.917969 573.597656 266.382812 C 575.367188 264.441406 578.652344 263.347656 596.34375 258.964844 C 607.71875 256.1875 623.980469 252.3125 632.574219 250.457031 C 647.738281 247.085938 657.261719 244.726562 682.285156 237.988281 C 698.796875 233.523438 709.917969 230.320312 713.375 229.140625 C 716.492188 228.046875 717.921875 226.023438 715.5625 226.023438 C 712.785156 226.023438 714.972656 223.917969 719.859375 221.980469 C 727.359375 218.945312 738.988281 216.164062 758.027344 212.964844 C 772.351562 210.519531 775.890625 209.679688 779.679688 207.488281 C 785.15625 204.453125 788.273438 204.285156 794.171875 207.066406 C 798.386719 209.003906 798.554688 209.257812 798.554688 212.375 C 798.554688 214.226562 797.039062 221.726562 795.183594 229.058594 C 791.476562 243.546875 787.433594 263.683594 785.914062 274.46875 C 782.882812 295.871094 780.355469 306.90625 776.226562 316.679688 C 768.644531 334.542969 765.441406 345.917969 763.925781 360.828125 C 763.421875 366.136719 762.324219 373.71875 761.480469 377.679688 C 760.21875 383.242188 760.132812 384.503906 761.0625 383.242188 C 763.335938 380.207031 765.609375 371.359375 766.875 360.828125 C 768.8125 345.242188 770.582031 339.597656 779.175781 321.652344 C 782.292969 315.164062 785.410156 307.582031 786.167969 304.800781 C 786.925781 302.019531 788.863281 289.886719 790.550781 277.921875 C 794.003906 252.984375 795.859375 243.378906 799.394531 232.003906 C 800.746094 227.539062 802.09375 222.484375 802.429688 220.714844 L 803.019531 217.429688 L 806.222656 220.632812 L 809.507812 223.832031 L 809.589844 235.710938 C 809.589844 242.199219 809.929688 248.265625 810.265625 249.109375 C 810.769531 250.542969 811.023438 250.457031 811.78125 248.265625 C 812.960938 245.402344 814.5625 234.113281 814.5625 229.394531 L 814.5625 226.023438 L 819.113281 226.023438 C 821.640625 226.023438 823.914062 226.359375 824.167969 226.699219 C 824.417969 227.117188 825.179688 231.332031 825.9375 236.21875 C 826.609375 241.019531 829.054688 251.214844 831.328125 258.882812 C 833.601562 266.550781 836.636719 277.332031 838.152344 282.894531 C 841.859375 296.121094 844.21875 302.019531 852.390625 318.785156 C 858.964844 332.015625 859.300781 333.027344 859.804688 339.851562 C 860.3125 347.433594 859.300781 351.730469 852.558594 369.84375 C 851.128906 373.71875 850.285156 376.835938 850.621094 376.835938 C 851.464844 376.753906 859.46875 362.851562 861.238281 358.386719 C 863.09375 353.582031 865.703125 349.875 867.21875 349.875 C 867.894531 349.875 869.496094 350.886719 870.757812 352.066406 C 872.023438 353.332031 874.464844 355.351562 876.066406 356.699219 L 878.933594 359.144531 L 876.320312 367.316406 C 874.804688 371.867188 872.695312 379.363281 871.601562 384 C 870 390.402344 868.398438 394.53125 864.777344 400.847656 C 861.996094 405.820312 858.964844 412.644531 857.53125 417.449219 C 856.097656 421.996094 853.824219 429.578125 852.390625 434.296875 C 850.117188 441.882812 842.195312 458.480469 836.046875 468.671875 C 833.855469 472.296875 827.789062 485.609375 828.210938 485.945312 C 828.464844 486.199219 834.53125 477.265625 842.703125 464.546875 C 844.894531 461.175781 849.359375 453.421875 852.476562 447.273438 C 857.445312 437.835938 858.710938 434.550781 860.984375 424.863281 C 863.261719 415.257812 864.523438 411.800781 869.832031 401.609375 C 874.128906 393.265625 876.742188 386.777344 878.59375 380.125 C 882.808594 364.957031 883.648438 362.515625 887.1875 355.269531 C 890.980469 347.347656 893.589844 344.398438 896.203125 345.242188 C 897.636719 345.664062 897.972656 346.507812 898.058594 349.707031 C 898.058594 353.078125 898.226562 353.414062 899.066406 352.066406 C 901.175781 348.78125 903.785156 346.085938 904.375 346.675781 C 905.132812 347.515625 899.066406 376.585938 894.265625 394.953125 C 891.0625 407.253906 887.1875 429.578125 884.070312 454.351562 C 882.890625 463.871094 890.054688 435.816406 894.519531 413.320312 C 896.960938 401.269531 898.476562 395.375 903.363281 379.195312 C 906.398438 369.171875 911.117188 346.167969 912.632812 333.445312 C 914.488281 318.703125 915.078125 315.835938 919.964844 297.21875 C 925.269531 277.332031 929.738281 262.925781 931.253906 260.90625 C 932.347656 259.472656 932.433594 260.230469 932.515625 267.476562 C 932.515625 275.566406 933.613281 278.511719 934.625 272.953125 C 935.042969 270.171875 936.644531 258.796875 936.730469 257.957031 C 936.730469 257.703125 939.171875 257.449219 942.121094 257.449219 L 947.597656 257.449219 L 948.105469 263.011719 C 948.945312 272.867188 951.640625 293.511719 953.496094 304.632812 C 954 307.328125 955.179688 312.046875 956.191406 315.164062 L 958.046875 320.894531 L 955.519531 328.054688 C 954.085938 331.929688 950.800781 341.957031 948.105469 350.296875 C 942.628906 367.316406 938.835938 376.835938 930.074219 394.445312 C 926.789062 401.1875 924.34375 406.832031 924.597656 407.085938 C 925.1875 407.675781 924.511719 408.683594 934.707031 391.160156 C 945.40625 372.707031 946.335938 370.941406 950.546875 358.890625 C 957.117188 340.355469 964.617188 321.734375 967.480469 317.015625 C 970.9375 311.203125 973.886719 303.199219 977.085938 290.984375 L 979.613281 281.460938 L 986.609375 274.132812 C 991.15625 269.5 995.792969 263.347656 999.667969 257.199219 C 1002.953125 251.890625 1006.40625 246.664062 1007.417969 245.570312 C 1009.777344 242.957031 1013.316406 243.210938 1017.445312 246.246094 C 1019.382812 247.59375 1021.910156 248.773438 1023.089844 248.773438 C 1024.523438 248.773438 1025.53125 249.53125 1026.289062 251.046875 C 1028.398438 255.089844 1035.054688 279.945312 1036.570312 289.046875 C 1037.328125 293.847656 1039.6875 303.453125 1041.792969 310.53125 C 1043.816406 317.605469 1047.1875 329.570312 1049.207031 337.238281 C 1053 351.984375 1054.433594 356.53125 1055.609375 357.796875 C 1056.789062 359.058594 1056.539062 357.628906 1054.683594 351.140625 C 1053.757812 347.855469 1052.410156 341.113281 1051.734375 336.058594 C 1051.0625 331.003906 1048.785156 320.472656 1046.679688 312.636719 C 1043.394531 300.757812 1038.675781 280.28125 1038.675781 278.007812 C 1038.675781 277.671875 1039.011719 277.417969 1039.351562 277.417969 C 1040.191406 277.417969 1044.828125 286.6875 1053 304.378906 C 1063.027344 326.117188 1072.546875 345.242188 1076.757812 352.402344 C 1081.984375 361.082031 1091.671875 374.730469 1104.476562 391.328125 C 1118.464844 409.359375 1119.136719 410.621094 1121.328125 423.597656 C 1124.785156 444.410156 1128.492188 453.84375 1136.664062 462.523438 C 1139.863281 465.894531 1141.042969 467.914062 1141.550781 470.863281 C 1144.246094 485.355469 1159.75 497.910156 1190.332031 510.378906 C 1195.386719 512.484375 1200.105469 514.171875 1200.863281 514.171875 C 1201.960938 514.171875 1202.128906 514.675781 1201.539062 517.289062 C 1200.273438 523.101562 1200.863281 531.191406 1202.800781 534.898438 C 1206.675781 542.394531 1213.25 546.1875 1230.773438 550.820312 C 1250.828125 556.128906 1255.628906 559.75 1255.039062 569.355469 C 1254.617188 575.675781 1252.34375 579.046875 1246.445312 581.996094 C 1242.90625 583.765625 1241.054688 584.101562 1234.480469 584.101562 C 1224.117188 584.101562 1217.628906 582.078125 1209.375 576.179688 L 1203.054688 571.632812 L 1199.9375 575.421875 C 1198.253906 577.445312 1197.15625 579.46875 1197.578125 579.804688 C 1204.066406 585.363281 1212.996094 590.167969 1220.410156 592.1875 C 1226.984375 593.875 1240.125 593.957031 1245.941406 592.273438 C 1255.542969 589.492188 1262.371094 583.089844 1264.898438 574.582031 C 1266.496094 569.1875 1266.496094 566.15625 1264.898438 560.679688 C 1261.949219 550.820312 1255.125 546.441406 1234.398438 541.132812 C 1222.769531 538.097656 1217.378906 535.824219 1214.261719 532.621094 C 1212.238281 530.515625 1211.816406 529.25 1211.5625 524.703125 C 1211.226562 519.898438 1211.480469 518.804688 1213.332031 515.941406 C 1219.652344 506.335938 1239.453125 506.082031 1253.015625 515.351562 L 1257.230469 518.214844 L 1260.09375 514.421875 L 1263.042969 510.546875 L 1260.601562 508.527344 C 1254.113281 503.21875 1241.390625 499.089844 1231.871094 499.003906 C 1222.011719 499.003906 1210.972656 503.300781 1206.339844 509.03125 L 1203.898438 511.894531 L 1200.273438 510.800781 C 1193.535156 508.609375 1173.058594 497.742188 1165.816406 492.515625 C 1153.933594 483.921875 1148.710938 477.351562 1147.277344 468.84375 C 1146.4375 464.375 1145.929688 463.367188 1142.054688 459.660156 C 1134.304688 452.328125 1130.511719 443.230469 1126.804688 422.925781 C 1125.625 416.605469 1124.109375 410.117188 1123.433594 408.601562 C 1122.253906 405.90625 1116.105469 397.648438 1097.230469 373.128906 C 1087.710938 360.746094 1083.582031 354.425781 1077.6875 343.304688 C 1076 340.1875 1074.148438 336.816406 1073.558594 335.722656 C 1070.441406 330.75 1045.332031 276.996094 1039.351562 262.675781 C 1034.886719 251.890625 1031.007812 245.066406 1028.902344 244.222656 C 1028.144531 243.96875 1026.878906 243.71875 1025.953125 243.71875 C 1025.113281 243.71875 1022.5 242.539062 1020.308594 241.1875 C 1017.023438 239.167969 1015.167969 238.660156 1011.546875 238.660156 C 1005.984375 238.660156 1003.542969 240.261719 1000.761719 245.570312 C 996.550781 253.742188 985.847656 268.488281 980.289062 273.710938 C 974.558594 279.1875 974.476562 279.355469 972.539062 286.9375 C 970.261719 295.703125 966.808594 305.726562 964.363281 310.613281 C 962.765625 313.730469 962.59375 313.898438 961.5 312.382812 C 960.824219 311.539062 960.152344 309.433594 959.816406 307.832031 C 959.5625 306.148438 958.804688 302.695312 958.128906 300.167969 C 956.023438 291.910156 954.339844 278.933594 953.832031 266.972656 C 953.328125 255.679688 953.242188 255.089844 951.136719 253.152344 C 949.285156 251.46875 948.441406 251.214844 945.492188 251.722656 L 941.953125 252.226562 L 938.835938 247.085938 C 935.804688 242.117188 935.550781 241.949219 932.601562 242.199219 L 929.566406 242.453125 L 926.535156 254.667969 C 924.933594 261.410156 922.574219 269.917969 921.394531 273.625 C 916.171875 289.550781 911.285156 309.183594 909.261719 322.074219 C 906.484375 340.101562 905.050781 342.378906 897.636719 340.523438 C 892.074219 339.175781 888.621094 341.03125 884.660156 347.855469 C 882.976562 350.804688 881.121094 353.246094 880.53125 353.246094 C 880.027344 353.246094 877.921875 351.394531 875.984375 349.035156 C 873.539062 346.085938 871.601562 344.738281 869.75 344.316406 C 866.714844 343.808594 865.957031 342.378906 865.957031 337.070312 C 865.957031 334.121094 863.511719 328.390625 856.097656 314.070312 C 854.917969 311.710938 852.644531 307.414062 851.128906 304.378906 C 849.613281 301.347656 846.746094 293.59375 844.894531 287.105469 C 842.957031 280.621094 839.753906 269.835938 837.730469 263.09375 C 833.601562 249.363281 832.003906 242.453125 830.570312 231.585938 C 829.726562 225.6875 829.054688 223.582031 827.535156 222.0625 C 825.597656 220.125 825.261719 220.042969 814.644531 219.703125 C 812.457031 219.703125 811.191406 218.945312 809 216.335938 C 807.484375 214.480469 806.050781 211.867188 805.800781 210.4375 C 805.042969 206.730469 801.503906 203.695312 795.4375 201.675781 C 789.792969 199.738281 788.105469 199.652344 783.21875 200.832031 Z M 222.175781 511.222656 C 235.992188 514.507812 246.1875 524.871094 249.136719 538.433594 C 251.832031 551.074219 248.042969 564.132812 239.363281 572.390625 C 230.515625 580.730469 225.039062 582.5 205.242188 583.089844 L 190.242188 583.511719 L 190.242188 509.957031 L 203.554688 509.957031 C 212.402344 509.957031 218.554688 510.378906 222.175781 511.222656 Z M 222.175781 511.222656 " fill-opacity="1" fill-rule="nonzero"/><path fill="#1c1c1c" d="M 1008.34375 381.640625 C 1008.34375 385.347656 1011.210938 398.574219 1015.421875 414.667969 C 1021.574219 437.921875 1021.488281 437.332031 1018.792969 438.34375 C 1017.277344 438.933594 1016.769531 439.605469 1017.105469 440.703125 C 1018.117188 444.070312 1025.113281 472.886719 1026.039062 477.4375 C 1027.21875 483.164062 1033.199219 501.449219 1034.296875 502.542969 C 1035.054688 503.300781 1031.683594 483.671875 1028.144531 466.988281 C 1026.710938 460.25 1025.871094 453.171875 1025.703125 447.1875 C 1025.363281 436.320312 1023.511719 427.558594 1018.035156 410.960938 C 1013.316406 396.550781 1010.03125 385.09375 1010.03125 382.820312 C 1010.03125 381.890625 1009.691406 380.882812 1009.1875 380.628906 C 1008.765625 380.375 1008.34375 380.796875 1008.34375 381.640625 Z M 1008.34375 381.640625 " fill-opacity="1" fill-rule="nonzero"/><path fill="#1c1c1c" d="M 350.410156 500.351562 C 325.554688 507.007812 310.8125 533.296875 317.464844 559.160156 C 319.742188 568.175781 322.773438 573.402344 329.683594 580.394531 C 341.140625 591.9375 356.308594 596.402344 372.652344 592.949219 C 389.671875 589.324219 403.488281 576.011719 408.039062 558.824219 C 409.640625 552.757812 409.640625 540.289062 408.039062 533.96875 C 403.828125 517.457031 390.515625 504.058594 374.675781 500.269531 C 367.933594 498.753906 356.390625 498.753906 350.410156 500.351562 Z M 369.871094 509.199219 C 384.363281 512.234375 396.074219 525.292969 398.265625 540.710938 C 400.710938 557.5625 392.453125 573.90625 378.214844 580.984375 C 372.988281 583.511719 372.230469 583.679688 362.964844 583.679688 C 353.78125 583.679688 352.9375 583.511719 347.546875 580.984375 C 337.855469 576.347656 330.019531 566.660156 327.660156 556.214844 C 326.3125 550.652344 326.566406 540.289062 328.082031 535.148438 C 330.105469 528.410156 332.296875 524.535156 337.183594 519.394531 C 345.691406 510.378906 357.65625 506.671875 369.871094 509.199219 Z M 369.871094 509.199219 " fill-opacity="1" fill-rule="nonzero"/><path fill="#1c1c1c" d="M 617.070312 500.351562 C 605.023438 503.300781 592.808594 513.160156 587.5 524.449219 C 582.273438 535.402344 580.925781 545.679688 583.285156 556.71875 C 588.257812 580.140625 608.394531 595.476562 632.152344 593.957031 C 651.699219 592.609375 667.117188 580.5625 673.523438 561.605469 C 676.386719 553.347656 676.722656 541.046875 674.363281 533.210938 C 669.5625 516.867188 656.921875 504.3125 641.421875 500.269531 C 635.269531 498.753906 623.726562 498.753906 617.070312 500.351562 Z M 636.113281 509.199219 C 642.683594 510.632812 650.015625 514.589844 654.566406 519.308594 C 672.34375 537.59375 667.117188 570.285156 644.621094 580.984375 C 639.230469 583.511719 638.386719 583.679688 629.203125 583.679688 C 619.9375 583.679688 619.179688 583.511719 613.953125 580.984375 C 583.203125 565.816406 587.246094 518.382812 620.019531 509.621094 C 625.664062 508.105469 630.300781 508.019531 636.113281 509.199219 Z M 636.113281 509.199219 " fill-opacity="1" fill-rule="nonzero"/><path fill="#1c1c1c" d="M 468.28125 546.609375 L 468.28125 592.527344 L 530.628906 592.527344 L 530.628906 583.257812 L 479.234375 583.257812 L 479.234375 500.691406 L 468.28125 500.691406 Z M 468.28125 546.609375 " fill-opacity="1" fill-rule="nonzero"/><path fill="#1c1c1c" d="M 728.117188 502.121094 C 728.453125 502.964844 737.300781 523.859375 747.832031 548.546875 L 766.957031 593.453125 L 771.59375 593.199219 L 776.140625 592.949219 L 795.773438 547.027344 C 806.558594 521.753906 815.40625 501.027344 815.40625 500.859375 C 815.40625 500.691406 812.878906 500.691406 809.757812 500.859375 L 804.199219 501.109375 L 788.105469 540.035156 C 779.261719 561.519531 771.84375 579.046875 771.59375 579.046875 C 771.339844 579.046875 763.925781 561.519531 755.164062 540.035156 L 739.15625 501.109375 L 733.339844 500.859375 C 728.117188 500.605469 727.613281 500.773438 728.117188 502.121094 Z M 728.117188 502.121094 " fill-opacity="1" fill-rule="nonzero"/><path fill="#1c1c1c" d="M 871.855469 546.609375 L 871.855469 592.527344 L 881.964844 592.527344 L 881.964844 500.691406 L 871.855469 500.691406 Z M 871.855469 546.609375 " fill-opacity="1" fill-rule="nonzero"/><path fill="#1c1c1c" d="M 945.996094 546.609375 L 945.996094 592.527344 L 969.417969 592.527344 C 994.613281 592.527344 999.582031 591.9375 1007.332031 587.976562 C 1015.929688 583.679688 1020.898438 574.582031 1019.886719 565.144531 C 1019.046875 556.71875 1014.917969 551.410156 1006.070312 547.199219 L 1000.847656 544.753906 L 1004.976562 542.144531 C 1010.03125 539.023438 1013.148438 534.476562 1014.410156 528.410156 C 1017.023438 516.023438 1009.863281 505.492188 996.464844 501.953125 C 993.011719 501.027344 986.1875 500.691406 969 500.691406 L 945.996094 500.691406 Z M 994.273438 511.304688 C 998.488281 512.738281 1002.953125 517.035156 1003.796875 520.574219 C 1004.722656 524.363281 1003.710938 531.441406 1001.773438 534.222656 C 1000.761719 535.570312 998.148438 537.675781 995.875 538.773438 C 992.167969 540.625 990.820312 540.710938 974.054688 540.964844 L 956.109375 541.214844 L 956.109375 509.957031 L 973.210938 509.957031 C 986.609375 509.957031 991.242188 510.210938 994.273438 511.304688 Z M 992.675781 551.242188 C 999.328125 552.335938 1004.976562 555.203125 1007.25 558.742188 C 1008.765625 560.929688 1009.1875 562.785156 1009.1875 566.828125 C 1009.1875 573.738281 1007.082031 576.9375 1000.339844 580.308594 L 995.285156 582.835938 L 975.738281 583.089844 L 956.109375 583.425781 L 956.109375 550.398438 L 971.949219 550.398438 C 980.625 550.398438 989.976562 550.738281 992.675781 551.242188 Z M 992.675781 551.242188 " fill-opacity="1" fill-rule="nonzero"/><path fill="#1c1c1c" d="M 1077.433594 546.609375 L 1077.433594 592.527344 L 1144.835938 592.527344 L 1144.835938 583.257812 L 1088.386719 583.257812 L 1088.386719 550.398438 L 1138.09375 550.398438 L 1138.09375 541.132812 L 1088.386719 541.132812 L 1088.386719 509.957031 L 1116.441406 509.789062 L 1144.414062 509.535156 L 1144.667969 505.070312 L 1144.917969 500.691406 L 1077.433594 500.691406 Z M 1077.433594 546.609375 " fill-opacity="1" fill-rule="nonzero"/></svg>