<svg xmlns="http://www.w3.org/2000/svg" xmlns:xlink="http://www.w3.org/1999/xlink" width="1920" zoomAndPan="magnify" viewBox="0 0 1440 809.999993" height="1080" preserveAspectRatio="xMidYMid meet" version="1.0"><defs><clipPath id="954174d32f"><path d="M 181 265 L 1238.800781 265 L 1238.800781 567.445312 L 181 567.445312 Z M 181 265 " clip-rule="nonzero"/></clipPath><clipPath id="440ea85285"><path d="M 1041 452 L 1069 452 L 1069 567.445312 L 1041 567.445312 Z M 1041 452 " clip-rule="nonzero"/></clipPath></defs><g clip-path="url(#954174d32f)"><path fill="#1c1c1c" d="M 807.65625 265.816406 C 805.820312 266.253906 802.0625 267.738281 799.351562 269.140625 C 795.945312 270.800781 790.785156 272.285156 783.355469 273.507812 C 747.339844 279.804688 731.691406 284.4375 728.894531 289.855469 C 727.582031 292.304688 724.085938 293.703125 702.929688 300.171875 C 685.796875 305.417969 672.246094 308.828125 653.890625 312.410156 C 645.410156 314.070312 635.269531 316.257812 631.335938 317.304688 C 621.285156 319.839844 609.308594 322.199219 600.738281 323.425781 C 593.308594 324.386719 589.636719 325.785156 587.367188 328.144531 C 576.351562 340.121094 573.726562 341.78125 560.878906 344.492188 C 550.914062 346.589844 544.96875 346.679688 542.78125 344.667969 C 541.644531 343.707031 539.808594 343.179688 537.449219 343.269531 C 529.496094 343.617188 491.46875 350.261719 471.273438 354.894531 C 464.804688 356.382812 456.761719 358.128906 453.355469 358.917969 C 450.03125 359.617188 444.089844 361.1875 440.242188 362.324219 C 436.308594 363.460938 427.390625 365.996094 420.398438 367.921875 C 405.363281 371.941406 404.574219 372.378906 401.867188 376.574219 C 399.066406 380.945312 371.792969 411.015625 365.585938 416.613281 C 357.71875 423.605469 352.910156 426.578125 347.578125 427.453125 C 339.363281 428.761719 337.089844 430.949219 333.59375 440.828125 C 331.230469 447.296875 330.882812 447.820312 322.492188 455.164062 C 317.769531 459.359375 311.5625 464.253906 308.851562 466.089844 C 303.171875 469.847656 301.160156 473.171875 300.375 479.902344 C 299.410156 488.207031 299.0625 489.34375 294.515625 496.25 C 276.332031 524.222656 239.269531 560.414062 215.054688 573.789062 L 209.285156 576.9375 L 181.921875 576.9375 L 181.921875 672.222656 L 201.417969 672.222656 C 223.535156 672.222656 229.390625 671.347656 239.445312 666.539062 C 246.875 663.042969 256.488281 654.125 259.722656 647.742188 C 269.777344 628.074219 266.804688 605.871094 252.207031 591.273438 C 244.25 583.316406 230.089844 577.023438 219.949219 576.9375 L 216.453125 576.847656 L 218.8125 574.925781 C 220.210938 573.789062 224.933594 570.816406 229.476562 568.28125 C 241.191406 561.636719 250.195312 554.121094 267.941406 535.761719 C 295.914062 506.914062 306.929688 491.355469 306.929688 480.777344 C 306.929688 475.617188 308.679688 472.910156 315.496094 467.488281 C 318.730469 464.777344 325.199219 458.921875 329.832031 454.464844 C 337.265625 447.121094 338.398438 445.722656 339.625 441.265625 C 341.199219 435.667969 344.167969 432.695312 348.191406 432.695312 C 355.796875 432.695312 366.722656 423.253906 396.96875 390.738281 C 403.875 383.304688 410.34375 376.664062 411.21875 375.964844 C 414.539062 373.601562 455.015625 361.890625 473.023438 358.042969 C 485.523438 355.417969 500.648438 353.234375 517.957031 351.398438 C 536.574219 349.476562 536.839844 349.476562 536.839844 353.757812 C 536.839844 354.808594 538.0625 359.003906 539.546875 362.9375 C 541.035156 366.957031 543.570312 373.691406 545.230469 378.0625 C 548.8125 387.851562 548.988281 386.101562 545.667969 372.640625 C 544.269531 366.957031 542.957031 359.964844 542.78125 357.082031 L 542.519531 351.835938 L 549.078125 351.3125 C 556.070312 350.785156 568.832031 347.902344 573.992188 345.804688 C 577.398438 344.316406 586.578125 337.5 590.164062 333.828125 C 592 331.816406 595.40625 330.679688 613.765625 326.136719 C 625.566406 323.25 642.4375 319.230469 651.355469 317.304688 C 667.089844 313.808594 676.96875 311.363281 702.929688 304.367188 C 720.066406 299.734375 731.605469 296.414062 735.1875 295.1875 C 738.421875 294.050781 739.910156 291.953125 737.460938 291.953125 C 734.578125 291.953125 736.847656 289.769531 741.917969 287.757812 C 749.699219 284.613281 761.761719 281.726562 781.519531 278.40625 C 796.378906 275.871094 800.050781 274.996094 803.984375 272.722656 C 809.667969 269.574219 812.902344 269.402344 819.023438 272.285156 C 823.394531 274.296875 823.566406 274.558594 823.566406 277.792969 C 823.566406 279.714844 821.992188 287.496094 820.070312 295.101562 C 816.222656 310.136719 812.027344 331.03125 810.453125 342.21875 C 807.308594 364.421875 804.683594 375.875 800.402344 386.015625 C 792.535156 404.546875 789.210938 416.351562 787.640625 431.824219 C 787.113281 437.328125 785.976562 445.199219 785.105469 449.304688 C 783.792969 455.074219 783.707031 456.386719 784.667969 455.074219 C 787.027344 451.929688 789.386719 442.75 790.699219 431.824219 C 792.710938 415.652344 794.542969 409.792969 803.460938 391.171875 C 806.695312 384.441406 809.929688 376.574219 810.71875 373.691406 C 811.503906 370.804688 813.515625 358.21875 815.261719 345.804688 C 818.847656 319.929688 820.769531 309.960938 824.441406 298.160156 C 825.839844 293.527344 827.238281 288.28125 827.589844 286.449219 L 828.199219 283.039062 L 831.523438 286.359375 L 834.933594 289.683594 L 835.019531 302.007812 C 835.019531 308.738281 835.367188 315.03125 835.71875 315.90625 C 836.242188 317.394531 836.503906 317.304688 837.292969 315.03125 C 838.515625 312.0625 840.175781 300.347656 840.175781 295.453125 L 840.175781 291.953125 L 844.898438 291.953125 C 847.519531 291.953125 849.878906 292.304688 850.140625 292.652344 C 850.40625 293.089844 851.191406 297.460938 851.976562 302.53125 C 852.675781 307.515625 855.210938 318.09375 857.574219 326.046875 C 859.933594 334.003906 863.082031 345.191406 864.652344 350.960938 C 868.5 364.6875 870.949219 370.804688 879.425781 388.203125 C 886.246094 401.925781 886.59375 402.976562 887.121094 410.054688 C 887.644531 417.921875 886.59375 422.382812 879.601562 441.175781 C 878.117188 445.199219 877.242188 448.433594 877.589844 448.433594 C 878.464844 448.34375 886.769531 433.921875 888.605469 429.289062 C 890.53125 424.304688 893.238281 420.457031 894.8125 420.457031 C 895.511719 420.457031 897.171875 421.507812 898.484375 422.730469 C 899.796875 424.042969 902.332031 426.140625 903.992188 427.539062 L 906.964844 430.074219 L 904.253906 438.554688 C 902.679688 443.273438 900.496094 451.054688 899.359375 455.863281 C 897.699219 462.507812 896.035156 466.789062 892.277344 473.347656 C 889.394531 478.503906 886.246094 485.585938 884.761719 490.566406 C 883.273438 495.289062 880.914062 503.15625 879.425781 508.050781 C 877.066406 515.917969 868.851562 533.140625 862.46875 543.71875 C 860.195312 547.476562 853.902344 561.289062 854.339844 561.636719 C 854.601562 561.898438 860.894531 552.632812 869.375 539.433594 C 871.648438 535.9375 876.28125 527.894531 879.515625 521.511719 C 884.671875 511.722656 885.984375 508.3125 888.34375 498.261719 C 890.703125 488.292969 892.015625 484.710938 897.523438 474.132812 C 901.980469 465.476562 904.691406 458.746094 906.613281 451.839844 C 910.984375 436.105469 911.859375 433.570312 915.53125 426.054688 C 919.464844 417.835938 922.175781 414.777344 924.882812 415.652344 C 926.371094 416.085938 926.71875 416.960938 926.808594 420.285156 C 926.808594 423.78125 926.984375 424.128906 927.855469 422.730469 C 930.042969 419.320312 932.753906 416.523438 933.363281 417.136719 C 934.152344 418.011719 927.855469 448.167969 922.875 467.226562 C 919.550781 479.988281 915.53125 503.15625 912.296875 528.855469 C 911.074219 538.734375 918.503906 509.625 923.136719 486.285156 C 925.671875 473.78125 927.246094 467.664062 932.316406 450.878906 C 935.460938 440.476562 940.355469 416.613281 941.929688 403.410156 C 943.855469 388.113281 944.464844 385.140625 949.535156 365.824219 C 955.042969 345.191406 959.675781 330.242188 961.25 328.144531 C 962.386719 326.660156 962.472656 327.445312 962.5625 334.964844 C 962.5625 343.355469 963.699219 346.414062 964.746094 340.644531 C 965.183594 337.761719 966.84375 325.960938 966.933594 325.085938 C 966.933594 324.824219 969.46875 324.5625 972.527344 324.5625 L 978.210938 324.5625 L 978.734375 330.332031 C 979.609375 340.558594 982.40625 361.976562 984.328125 373.515625 C 984.851562 376.3125 986.078125 381.207031 987.125 384.441406 L 989.050781 390.386719 L 986.425781 397.816406 C 984.941406 401.839844 981.53125 412.242188 978.734375 420.894531 C 973.050781 438.554688 969.117188 448.433594 960.027344 466.703125 C 956.617188 473.695312 954.082031 479.550781 954.34375 479.816406 C 954.957031 480.425781 954.257812 481.476562 964.835938 463.292969 C 975.9375 444.148438 976.898438 442.3125 981.269531 429.8125 C 988.085938 410.582031 995.867188 391.261719 998.839844 386.367188 C 1002.421875 380.332031 1005.484375 372.027344 1008.804688 359.355469 L 1011.429688 349.476562 L 1018.683594 341.871094 C 1023.402344 337.0625 1028.210938 330.679688 1032.234375 324.300781 C 1035.640625 318.792969 1039.226562 313.371094 1040.277344 312.234375 C 1042.722656 309.527344 1046.394531 309.789062 1050.679688 312.933594 C 1052.6875 314.332031 1055.3125 315.558594 1056.535156 315.558594 C 1058.019531 315.558594 1059.070312 316.34375 1059.855469 317.917969 C 1062.042969 322.113281 1068.949219 347.902344 1070.523438 357.34375 C 1071.308594 362.324219 1073.757812 372.292969 1075.941406 379.632812 C 1078.039062 386.976562 1081.535156 399.390625 1083.632812 407.347656 C 1087.570312 422.644531 1089.054688 427.363281 1090.277344 428.675781 C 1091.503906 429.988281 1091.238281 428.5 1089.316406 421.769531 C 1088.355469 418.359375 1086.957031 411.367188 1086.257812 406.121094 C 1085.558594 400.875 1083.199219 389.949219 1081.011719 381.820312 C 1077.601562 369.492188 1072.707031 348.25 1072.707031 345.890625 C 1072.707031 345.542969 1073.058594 345.28125 1073.40625 345.28125 C 1074.28125 345.28125 1079.089844 354.894531 1087.570312 373.253906 C 1097.972656 395.808594 1107.847656 415.652344 1112.21875 423.082031 C 1117.640625 432.085938 1127.691406 446.246094 1140.980469 463.46875 C 1155.492188 482.175781 1156.191406 483.488281 1158.464844 496.949219 C 1162.046875 518.539062 1165.894531 528.332031 1174.375 537.335938 C 1177.695312 540.832031 1178.917969 542.929688 1179.445312 545.988281 C 1182.242188 561.027344 1198.328125 574.050781 1230.058594 586.988281 C 1235.304688 589.175781 1240.199219 590.921875 1240.984375 590.921875 C 1242.121094 590.921875 1242.296875 591.445312 1241.6875 594.15625 C 1240.375 600.1875 1240.984375 608.582031 1242.996094 612.425781 C 1247.019531 620.207031 1253.835938 624.140625 1272.019531 628.949219 C 1292.824219 634.457031 1297.808594 638.214844 1297.195312 648.179688 C 1296.757812 654.738281 1294.398438 658.234375 1288.277344 661.292969 C 1284.609375 663.128906 1282.683594 663.480469 1275.867188 663.480469 C 1265.113281 663.480469 1258.382812 661.382812 1249.816406 655.261719 L 1243.257812 650.542969 L 1240.023438 654.476562 C 1238.277344 656.574219 1237.140625 658.671875 1237.578125 659.019531 C 1244.308594 664.789062 1253.574219 669.773438 1261.265625 671.871094 C 1268.085938 673.621094 1281.722656 673.707031 1287.753906 671.957031 C 1297.71875 669.074219 1304.800781 662.429688 1307.421875 653.601562 C 1309.085938 648.007812 1309.085938 644.859375 1307.421875 639.175781 C 1304.363281 628.949219 1297.28125 624.402344 1275.777344 618.894531 C 1263.714844 615.75 1258.121094 613.390625 1254.886719 610.066406 C 1252.789062 607.882812 1252.351562 606.570312 1252.089844 601.851562 C 1251.738281 596.867188 1252 595.730469 1253.925781 592.757812 C 1260.480469 582.792969 1281.023438 582.53125 1295.097656 592.144531 L 1299.46875 595.117188 L 1302.441406 591.183594 L 1305.5 587.164062 L 1302.964844 585.066406 C 1296.234375 579.558594 1283.035156 575.273438 1273.15625 575.1875 C 1262.929688 575.1875 1251.476562 579.644531 1246.667969 585.589844 L 1244.132812 588.5625 L 1240.375 587.425781 C 1233.382812 585.152344 1212.136719 573.875 1204.621094 568.457031 C 1192.292969 559.539062 1186.875 552.722656 1185.386719 543.890625 C 1184.515625 539.257812 1183.988281 538.210938 1179.96875 534.363281 C 1171.925781 526.757812 1167.992188 517.316406 1164.144531 496.25 C 1162.921875 489.691406 1161.347656 482.960938 1160.648438 481.386719 C 1159.425781 478.589844 1153.042969 470.023438 1133.460938 444.585938 C 1123.585938 431.734375 1119.300781 425.179688 1113.183594 413.640625 C 1111.433594 410.40625 1109.511719 406.910156 1108.898438 405.773438 C 1105.664062 400.613281 1079.613281 344.84375 1073.40625 329.980469 C 1068.773438 318.792969 1064.753906 311.710938 1062.566406 310.835938 C 1061.78125 310.574219 1060.46875 310.3125 1059.507812 310.3125 C 1058.632812 310.3125 1055.921875 309.089844 1053.652344 307.691406 C 1050.242188 305.59375 1048.316406 305.066406 1044.558594 305.066406 C 1038.789062 305.066406 1036.253906 306.726562 1033.371094 312.234375 C 1029 320.714844 1017.898438 336.011719 1012.128906 341.433594 C 1006.183594 347.113281 1006.09375 347.289062 1004.085938 355.15625 C 1001.722656 364.25 998.140625 374.652344 995.605469 379.722656 C 993.945312 382.957031 993.769531 383.132812 992.632812 381.558594 C 991.933594 380.683594 991.234375 378.496094 990.882812 376.835938 C 990.621094 375.089844 989.835938 371.503906 989.136719 368.882812 C 986.949219 360.316406 985.203125 346.851562 984.679688 334.441406 C 984.152344 322.726562 984.066406 322.113281 981.878906 320.101562 C 979.957031 318.355469 979.082031 318.09375 976.023438 318.617188 L 972.351562 319.140625 L 969.117188 313.808594 C 965.96875 308.652344 965.707031 308.476562 962.648438 308.738281 L 959.5 309 L 956.355469 321.675781 C 954.695312 328.671875 952.246094 337.5 951.023438 341.34375 C 945.601562 357.867188 940.53125 378.234375 938.433594 391.609375 C 935.550781 410.316406 934.0625 412.679688 926.371094 410.753906 C 920.601562 409.355469 917.015625 411.28125 912.910156 418.359375 C 911.160156 421.421875 909.238281 423.957031 908.625 423.957031 C 908.101562 423.957031 905.914062 422.03125 903.902344 419.585938 C 901.367188 416.523438 899.359375 415.125 897.433594 414.6875 C 894.289062 414.164062 893.5 412.679688 893.5 407.171875 C 893.5 404.113281 890.964844 398.167969 883.273438 383.304688 C 882.050781 380.859375 879.691406 376.398438 878.117188 373.253906 C 876.542969 370.105469 873.570312 362.0625 871.648438 355.332031 C 869.636719 348.601562 866.316406 337.410156 864.214844 330.417969 C 859.933594 316.167969 858.273438 309 856.785156 297.722656 C 855.910156 291.605469 855.210938 289.417969 853.640625 287.847656 C 851.628906 285.835938 851.277344 285.746094 840.265625 285.398438 C 837.992188 285.398438 836.679688 284.613281 834.40625 281.902344 C 832.832031 279.976562 831.347656 277.269531 831.085938 275.78125 C 830.296875 271.9375 826.628906 268.789062 820.332031 266.691406 C 814.476562 264.679688 812.726562 264.59375 807.65625 265.816406 Z M 225.542969 587.863281 C 239.878906 591.273438 250.457031 602.023438 253.519531 616.097656 C 256.316406 629.210938 252.382812 642.761719 243.378906 651.328125 C 234.199219 659.984375 228.515625 661.816406 207.972656 662.429688 L 192.414062 662.867188 L 192.414062 586.550781 L 206.226562 586.550781 C 215.402344 586.550781 221.785156 586.988281 225.542969 587.863281 Z M 225.542969 587.863281 " fill-opacity="1" fill-rule="nonzero"/></g><g clip-path="url(#440ea85285)"><path fill="#1c1c1c" d="M 1041.238281 453.414062 C 1041.238281 457.261719 1044.210938 470.984375 1048.582031 487.683594 C 1054.960938 511.808594 1054.875 511.199219 1052.078125 512.246094 C 1050.503906 512.859375 1049.980469 513.558594 1050.328125 514.695312 C 1051.378906 518.191406 1058.632812 548.089844 1059.59375 552.808594 C 1060.820312 558.753906 1067.023438 577.722656 1068.160156 578.859375 C 1068.949219 579.644531 1065.453125 559.277344 1061.78125 541.96875 C 1060.292969 534.976562 1059.421875 527.632812 1059.246094 521.425781 C 1058.894531 510.148438 1056.972656 501.058594 1051.289062 483.835938 C 1046.394531 468.886719 1042.984375 457 1042.984375 454.640625 C 1042.984375 453.675781 1042.636719 452.628906 1042.113281 452.367188 C 1041.675781 452.105469 1041.238281 452.539062 1041.238281 453.414062 Z M 1041.238281 453.414062 " fill-opacity="1" fill-rule="nonzero"/></g></svg>